<?xml version="1.0" encoding="UTF-8" standalone="no"?>
<!-- Created with Inkscape (http://www.inkscape.org/) -->

<svg
   width="210mm"
   height="297mm"
   viewBox="0 0 210 297"
   version="1.1"
   id="svg1"
   xml:space="preserve"
   inkscape:version="1.3.2 (091e20e, 2023-11-25, custom)"
   sodipodi:docname="Spiky Hair Boy Drawing.svg"
   xmlns:inkscape="http://www.inkscape.org/namespaces/inkscape"
   xmlns:sodipodi="http://sodipodi.sourceforge.net/DTD/sodipodi-0.dtd"
   xmlns="http://www.w3.org/2000/svg"
   xmlns:svg="http://www.w3.org/2000/svg"><sodipodi:namedview
     id="namedview1"
     pagecolor="#ffffff"
     bordercolor="#000000"
     borderopacity="0.25"
     inkscape:showpageshadow="2"
     inkscape:pageopacity="0.0"
     inkscape:pagecheckerboard="0"
     inkscape:deskcolor="#d1d1d1"
     inkscape:document-units="mm"
     inkscape:zoom="1.3843855"
     inkscape:cx="437.73934"
     inkscape:cy="617.24136"
     inkscape:window-width="1920"
     inkscape:window-height="991"
     inkscape:window-x="-9"
     inkscape:window-y="-9"
     inkscape:window-maximized="1"
     inkscape:current-layer="layer1" /><defs
     id="defs1" /><g
     inkscape:label="Layer 1"
     inkscape:groupmode="layer"
     id="layer1"><path
       style="fill:none;stroke-width:0.264583;fill-opacity:1"
       d="m 59.438224,173.53668 c 0.411634,2.30156 0.765141,4.39974 1.146718,6.68919 0.07201,0.43208 -0.08583,0.90867 0,1.33783 0.103026,0.51514 0.317079,1.00768 0.382238,1.52896 0.08489,0.67915 -0.134115,1.43174 0,2.10232 0.164923,0.82461 0.45308,1.06924 0.57336,1.9112 0.03604,0.25226 -0.03604,0.51221 0,0.76447 0.0596,0.41717 0.322644,0.92068 0.382238,1.33784 0.04505,0.31533 -0.07726,0.64658 0,0.9556 0.116184,0.46473 0.369539,0.93019 0.57336,1.33784 0.08547,0.17094 -0.04635,0.38794 0,0.57336 0.164524,0.6581 0.671804,1.34361 0.955599,1.91119 0.204941,0.40988 0.23551,1.08877 0.382238,1.52896 0.094,0.28199 0.302093,0.52404 0.382241,0.76448 0.233995,0.70199 0.38676,1.73816 0.57336,2.48456 0.0618,0.24721 -0.08058,0.52273 0,0.76447 0.214868,0.64461 0.704323,1.0919 0.955598,1.72008 0.22407,0.56018 0.349287,1.1599 0.573357,1.72008 0.06371,0.12741 0.127413,0.25483 0.191119,0.38224 0.06371,0 0.162632,-0.057 0.191122,0 0.05698,0.11396 -0.04732,0.26394 0,0.38224 0.08531,0.21327 0.296932,0.36009 0.382238,0.57336 0.04732,0.1183 -0.05698,0.26827 0,0.38224 0.02849,0.057 0.146074,-0.0451 0.19112,0 0.09083,0.0908 0.291409,0.67364 0.38224,0.76448 0.10073,0.10072 0.296768,0.0772 0.382239,0.19111 0.296063,0.39475 0.299106,1.11758 0.57336,1.52896 0.03534,0.053 0.162629,-0.057 0.191119,0 0.112104,0.22421 0.06786,0.70909 0.191119,0.9556 0.234151,0.4683 0.551926,0.99757 0.764479,1.52896 0.04976,0.12439 0.232836,0.80619 0.382241,0.9556 0.100727,0.10073 0.281509,0.0904 0.382238,0.19112 0.10073,0.10073 0.112102,0.26371 0.191119,0.38223 0.146103,0.21916 0.645025,0.48377 0.76448,0.57336 0.365461,0.2741 0.03444,0.13861 0.382238,0.57336 1.252397,1.5655 -0.09057,-0.28169 1.14672,0.9556 0.100729,0.10073 0.09039,0.28151 0.191119,0.38224 0.100729,0.10073 0.281511,0.0904 0.382238,0.19112 0.142454,0.14245 0.07937,0.40574 0.191122,0.57336 -0.01908,0.37862 0.281509,0.0904 0.382238,0.19112 0.294206,0.29421 0.470273,0.85251 0.764479,1.14672 0.201457,0.20146 0.56302,0.18078 0.764479,0.38224 0.10073,0.10073 0.09039,0.28151 0.19112,0.38224 0.04505,0.045 0.146071,-0.0451 0.191119,0 0.04505,0.045 -0.05301,0.15578 0,0.19112 0.167624,0.11174 0.38631,0.1163 0.57336,0.19112 0.22461,0.0898 1.335431,0.80077 1.528958,0.9556 0.505209,0.40416 0.997458,0.88097 1.528956,1.14671 0.229343,0.11468 0.344016,0.45869 0.57336,0.57336 0.180189,0.0901 0.412191,0.0703 0.57336,0.19112 0.113961,0.0855 0.112101,0.26371 0.191119,0.38224 0.219821,0.32973 0.450133,0.18043 0.764479,0.57336 0.143489,0.17936 0.202874,0.42987 0.382238,0.57336 0.157313,0.12585 0.393171,0.10102 0.57336,0.19112 0.476822,0.23841 0.797785,0.79778 1.146718,1.14672 0.200226,0.20023 0.810577,0.23722 0.955598,0.38224 0.100729,0.10073 0.09039,0.28151 0.191119,0.38224 0.219022,0.21902 0.736576,0.35433 0.955598,0.57336 0.10073,0.10073 0.07716,0.29676 0.191122,0.38223 0.161166,0.12088 0.412192,0.0703 0.573357,0.19112 0.113962,0.0855 0.07259,0.30323 0.191119,0.38224 0.218554,0.14571 0.539242,0.056 0.76448,0.19112 0.349789,0.20988 0.590743,0.58205 0.955598,0.76448 0.113961,0.057 0.268279,-0.057 0.382241,0 0.761545,0.38077 7.93e-4,0.38245 0.764479,0.57336 0.247216,0.0618 0.536554,-0.11396 0.764476,0 0.161169,0.0806 0.21494,0.31532 0.382241,0.38224 0.177451,0.071 0.384839,-0.0314 0.57336,0 0.588854,0.0981 1.131221,0.47522 1.720075,0.57336 0.377039,0.0628 0.771903,-0.075 1.14672,0 0.132138,0.0264 0.885031,0.36813 0.955598,0.38224 0.920086,0.18402 1.936271,-0.13293 2.866795,0 0.705101,0.10073 1.397214,0.28151 2.10232,0.38224 0.86609,0.12373 1.81879,-0.17138 2.67567,0 0.13969,0.0279 0.24404,0.15657 0.38224,0.19112 1.10733,0.27683 4.00154,-0.32253 4.96911,0 1.39549,0.46516 2.9591,-0.0962 4.39576,0.19112 1.60705,0.32141 5.39881,0.37696 7.07142,0.19112 0.19112,-0.0637 0.38225,-0.12742 0.57336,-0.19112 0,-0.0637 -0.057,-0.16263 0,-0.19112 0.009,-0.004 1.19914,-0.15645 1.33784,-0.19112 0.37429,-0.0936 0.64155,-0.41634 0.9556,-0.57336 0.11396,-0.057 0.26828,0.057 0.38224,0 0.37487,-0.18744 0.56839,-0.80072 0.9556,-0.9556 0.17745,-0.071 0.41434,0.10601 0.57336,0 0.10601,-0.0707 -0.0707,-0.27622 0,-0.38224 0.0859,-0.12892 0.92094,-0.36144 0.9556,-0.38224 0.15451,-0.0927 0.22772,-0.28953 0.38223,-0.38224 0.24264,-0.14557 0.73453,-0.23486 0.9556,-0.38224 0.14993,-0.1 0.23232,-0.28229 0.38224,-0.38224 0.15902,-0.10601 0.41434,0.10602 0.57336,0 0.23415,-0.1561 0.0887,-0.47549 0.38224,-0.57336 0.12088,-0.0403 0.26137,0.0403 0.38224,0 0.17094,-0.057 0.22107,-0.30165 0.38224,-0.38223 0.11396,-0.057 0.29214,0.0901 0.38224,0 0.10073,-0.10073 0.0904,-0.28151 0.19112,-0.38224 0.23288,-0.23289 0.72271,-0.34048 0.9556,-0.57336 0.10073,-0.10073 0.0904,-0.28151 0.19112,-0.38224 0.30218,-0.30219 0.81301,-0.30639 1.14672,-0.57336 0.11123,-0.089 0.0904,-0.28151 0.19112,-0.38224 0.0352,-0.0352 0.53814,-0.1559 0.57336,-0.19112 0.045,-0.0451 0,-0.12741 0,-0.19112 0.12741,-0.12741 0.22579,-0.29284 0.38223,-0.38224 0.29787,-0.17021 0.68771,-0.16793 0.9556,-0.38224 0.0995,-0.0796 -0.057,-0.26828 0,-0.38224 0.0285,-0.057 0.13068,0.0201 0.19112,0 0.35914,-0.11971 1.57385,-0.90575 1.9112,-1.14672 0.76412,-0.54579 1.34248,-1.40463 2.10232,-1.91119 0.11852,-0.079 0.29676,-0.0772 0.38223,-0.19112 0.12088,-0.16117 0.0703,-0.4122 0.19112,-0.57336 0.16447,-0.21929 0.80415,-0.34617 0.9556,-0.57336 0.0707,-0.10602 -0.0707,-0.27623 0,-0.38224 0.079,-0.11853 0.28151,-0.0904 0.38224,-0.19112 0.0451,-0.0451 -0.0451,-0.14607 0,-0.19112 0.32136,-0.32135 0.64816,-0.35456 0.9556,-0.76448 0.42785,-0.57047 0.6397,-1.40418 1.14672,-1.91119 0.34272,-0.34273 0.53536,-5.3e-4 0.76448,-0.57336 0.071,-0.17745 -0.0464,-0.38795 0,-0.57336 0.0883,-0.35326 0.83658,-1.09981 0.9556,-1.33784 0.14527,-0.29055 0.0458,-0.66505 0.19111,-0.9556 0.20056,-0.40111 0.60696,-0.67415 0.76448,-1.14672 0.0201,-0.0604 -0.057,-0.16263 0,-0.19112 0.11396,-0.057 0.29215,0.0901 0.38224,0 0.19112,-0.19112 -0.0956,-0.38224 0,-0.57336 0.14617,-0.29233 0.59916,-0.92454 0.76448,-1.33783 0.18194,-0.45484 0.32233,-1.11057 0.57336,-1.52896 0.0927,-0.15451 0.31897,-0.21352 0.38224,-0.38224 0.24695,-0.65853 0.19388,-1.15501 0.38224,-1.72008 0.1674,-0.5022 0.71128,-1.04032 0.9556,-1.52896 0.19272,-0.38544 0.13174,-0.6216 0.38224,-0.9556 0.10811,-0.14415 0.31532,-0.21493 0.38224,-0.38223 0.071,-0.17745 -0.0375,-0.38595 0,-0.57336 -0.14196,-0.35371 0.32653,-0.35052 0.38224,-0.57336 0.0463,-0.18542 -0.0464,-0.38795 0,-0.57336 0.0901,-0.36038 0.43539,-0.6107 0.57336,-0.9556 0.17752,-0.44381 0.49206,-1.23229 0.57336,-1.72008 0.0314,-0.18852 -0.0314,-0.38484 0,-0.57336 0.16182,-0.97096 0.71562,-1.9069 0.95559,-2.86679 0.0309,-0.12361 -0.0403,-0.26136 0,-0.38224 0.29395,-0.88184 0.18357,0.24397 0.38224,-1.14672 0.1911,-1.3377 0.5421,-2.67925 0.76448,-4.01351 0.14578,-0.87469 0.0811,-1.79591 0.19112,-2.67568 0.059,-0.47227 0.27146,-0.89473 0.38224,-1.33784 0.0618,-0.24721 -0.05,-0.5146 0,-0.76448 0.2015,-1.00748 0.47017,-2.02604 0.57336,-3.05791 0.0697,-0.69729 -0.0991,-1.40859 0,-2.10232 0.0562,-0.39317 0.25171,-0.94626 0.38224,-1.33783 0.18487,-0.55462 -0.0831,-1.32919 0,-1.9112 0.2375,-1.6625 0.10996,0.0236 0.38224,-1.33784 0.13498,-0.67489 -0.11327,-1.42271 0,-2.10232 0.27309,-1.63854 0.57336,-3.11744 0.57336,-4.77799 m 30.19691,0.76448 4.39575,-5.73359"
       id="path5" /><path
       style="display:inline;fill:none;fill-opacity:1;stroke:#000000;stroke-width:0.265;stroke-dasharray:none;stroke-opacity:1"
       d="m 65.554052,174.49227 c -1.159758,-0.18948 -1.726234,0.28977 -2.675675,0.76448 -0.375111,0.18756 -3.524907,-0.10612 -3.822393,-0.19112 -1.108089,-0.31659 -2.259611,-1.82663 -2.675676,-2.86679 -0.04732,-0.1183 0.0309,-0.25863 0,-0.38224 -0.101182,-0.40472 -0.472178,-0.74199 -0.57336,-1.14672 -0.0618,-0.24722 0.03604,-0.51221 0,-0.76448 -0.02849,-0.19943 -0.127413,-0.38224 -0.191119,-0.57335 -0.06371,-0.38225 -0.156036,-0.7608 -0.191119,-1.14672 -0.02884,-0.31723 0.05698,-0.64221 0,-0.9556 -0.197493,-1.08622 -0.689901,-2.18625 -0.955599,-3.24904 -0.04635,-0.18541 0.08547,-0.40241 0,-0.57336 -0.158377,-0.31675 -0.547875,-0.35675 -0.764479,-0.57336 -0.288443,-0.28844 -0.519726,-0.62926 -0.764479,-0.95559 -0.624943,-0.83326 -1.474819,-1.90677 -1.911196,-2.8668 -0.166728,-0.3668 -0.218599,-0.77853 -0.382239,-1.14672 -0.09329,-0.2099 -0.309602,-0.35545 -0.382241,-0.57336 -0.06044,-0.18131 0.03748,-0.38595 0,-0.57336 -0.07271,-0.36356 -0.471434,-0.64982 -0.573357,-0.95559 -0.257056,-0.77117 0.08084,-1.86726 0,-2.67568 -0.239948,-2.39947 -0.811922,-4.72785 -1.14672,-7.07143 -0.222533,-1.55774 -0.114525,0.0311 -0.573357,-1.52895 -0.239829,-0.81542 -0.357053,-1.66259 -0.57336,-2.48456 -0.314452,-1.19492 -0.752084,-2.41018 -0.955599,-3.63128 -0.302987,-1.81793 0.07327,-4.50299 0.76448,-6.11583 0.564798,-1.31786 0.450209,-0.55496 1.337836,-1.14671 0.07496,-0.05 0.101026,-0.19112 0.191122,-0.19112 0.06371,0 0,0.12741 0,0.19112 0,0.25482 0,0.50965 0,0.76448 0,0.41436 0.174281,0.98927 0,1.33783 -0.102725,0.20545 -0.248732,0.38645 -0.382241,0.57336 -0.361278,0.50579 -1.099886,1.1252 -1.337837,1.72008 -0.04732,0.1183 0.06555,0.27298 0,0.38224 -0.399198,0.66533 -0.709475,0.40834 -0.955598,1.14672 -0.06044,0.18131 0.08547,0.40241 0,0.57336 -0.318042,0.63608 -0.293981,0.005 -0.57336,0.19111 -1.031039,0.68737 0.131633,0.0595 -0.57336,0.76448 -0.100727,0.10073 -0.281509,0.0904 -0.382238,0.19112 -0.10073,0.10073 -0.127413,0.25483 -0.191119,0.38224 -0.318535,0.25483 -0.629264,0.51973 -0.955599,0.76448 -0.183758,0.13782 -0.41094,0.21982 -0.57336,0.38224 -0.387511,0.38751 -0.485671,1.05588 -0.955598,1.33784 -0.163883,0.0983 -0.392046,-0.0604 -0.57336,0 -0.06044,0.0201 0.04505,0.14607 0,0.19112 -0.16242,0.16242 -0.367911,0.27951 -0.573357,0.38224 -0.521907,0.26095 -1.031317,0.46589 -1.528958,0.76448 -0.154512,0.0927 -0.221073,0.30165 -0.382241,0.38224 -0.234937,0.11746 -0.518533,0.0989 -0.764477,0.19112 -0.73256,0.27471 -1.85048,0.50367 -1.911199,0.38224 -0.01225,-0.0245 0.169725,-2.18646 0.191122,-2.29344 0.06728,-0.33641 0.29197,-0.62462 0.382238,-0.9556 0.469149,-0.5908 0.03584,-1.29007 0.191119,-1.9112 0.0691,-0.27639 0.292145,-0.49419 0.382241,-0.76447 0.08058,-0.24175 -0.0618,-0.51727 0,-0.76448 0.26157,-1.04628 0.919676,-2.08221 1.337837,-3.05792 0.214415,-0.5003 0.401235,-1.01258 0.57336,-1.52895 0.04029,-0.12088 -0.06555,-0.27299 0,-0.38225 0.139059,-0.23176 0.411189,-0.35713 0.57336,-0.57336 0.11467,-0.15289 -0.05251,-0.38959 0,-0.57335 0.09425,-0.32987 0.200411,-0.66468 0.382238,-0.9556 0.143251,-0.2292 0.443934,-0.33608 0.57336,-0.57336 0.424899,-0.77898 0.626052,-1.66069 0.955598,-2.48456 0.44981,-1.12453 0.997828,-2.18678 1.528956,-3.24903 0.344358,-0.68872 0.381825,-1.65568 0.764479,-2.29344 0.07329,-0.12215 0.31306,-0.0666 0.382241,-0.19112 2.226675,-4.00801 -0.846164,0.73673 0.955598,-2.86679 0.120875,-0.24175 0.382238,-0.38224 0.573357,-0.57336 0.127416,-0.25483 0.27001,-0.50261 0.382241,-0.76448 0.182695,-0.42629 0.143621,-0.94014 0.382238,-1.33784 0.07329,-0.12215 0.303221,-0.0726 0.382241,-0.19112 0.07068,-0.10601 0,-0.25483 0,-0.38224 0.19112,-0.12741 0.435539,-0.19848 0.573358,-0.38224 0.256415,-0.34188 0.365818,-0.77314 0.57336,-1.14672 0.68862,-1.23951 1.979004,-3.16887 2.866795,-4.20463 0.09271,-0.10816 0.296767,-0.0772 0.38224,-0.19112 0.120873,-0.16116 0.07024,-0.41219 0.19112,-0.57336 0.146904,-0.19587 1.130114,-0.78942 1.337836,-0.95559 0.265446,-0.21236 0.716701,-0.79634 0.955598,-0.9556 0.167624,-0.11175 0.418595,-0.0622 0.57336,-0.19112 0.144579,-0.12049 1.612818,-1.73958 1.720078,-1.9112 0.234336,-0.37494 0.741293,-1.88801 0.955598,-2.10232 0.379288,-0.37929 0.06041,0.9051 0.382238,-0.38224 0.165582,-0.66232 0.212783,-1.42448 0.382241,-2.10231 0.286367,-1.145475 0.709287,-2.290705 0.955598,-3.440158 0.107617,-0.502216 0.05002,-1.0351 0.19112,-1.528956 0.117403,-0.410914 0.427312,-0.745093 0.57336,-1.14672 0.135866,-0.679336 0.147163,-0.941271 0.382238,-1.528955 0.214111,-0.535279 0.5433,-1.012873 0.764479,-1.528959 0.426709,-0.995656 -0.10546,-0.653362 0.57336,-1.720077 0.267129,-0.419775 0.699603,-0.720061 0.955598,-1.146718 0.135141,-0.225237 0.07365,-0.529542 0.191119,-0.764479 0.284904,-0.569809 0.818952,-0.982678 1.146718,-1.528958 1.028507,-1.714174 0.178985,-0.546055 0.955598,-2.293435 0.655727,-1.475385 0.08369,0.179054 0.764479,-0.955601 0.103651,-0.172746 0.09117,-0.398444 0.191119,-0.573357 0.246862,-0.432006 0.733081,-0.701683 0.955598,-1.146717 0.05698,-0.113964 -0.05698,-0.26828 0,-0.382241 0.25998,-0.519957 3.31079,-3.417618 3.631277,-3.631274 0.652248,-0.434832 1.590141,-0.643022 2.293435,-0.955598 0.712843,-0.316818 1.505381,-0.797989 2.293437,-0.955599 0.187407,-0.03748 0.402416,0.08547 0.573358,0 0.241749,-0.120875 0.337089,-0.442097 0.57336,-0.57336 0.35221,-0.195672 0.786339,-0.202049 1.146717,-0.382238 0.161166,-0.08058 0.221073,-0.301657 0.382241,-0.382241 0.113961,-0.05698 0.257299,0.02498 0.382238,0 0.592638,-0.118525 1.13375,-0.426775 1.720077,-0.573357 0.76448,-0.191119 0,0.382238 1.146718,0 0.170945,-0.05698 0.211296,-0.32526 0.382241,-0.382241 0.362624,-0.120875 0.804833,0.170945 1.146717,0 0.600557,-0.300278 0.128111,-0.446085 0.764479,-0.573357 0.249878,-0.04998 0.52273,0.08058 0.764479,0 0.05888,-0.01963 0.705602,-0.171495 0.76448,-0.191122 0.08547,-0.02849 0.105648,-0.162629 0.191119,-0.191119 0.50565,-0.168551 1.186471,0.07623 1.720077,0 0.321575,-0.04594 0.637064,-0.127413 0.955598,-0.191119 0.382239,0 0.766816,0.04221 1.146718,0 0.255889,-0.02843 0.828444,-0.350259 1.146717,-0.19112 0.03038,0.01519 0,1.919219 0,2.484557 0,1.446921 0.08046,3.007669 -0.382238,4.395753 -0.0901,0.270282 -0.292145,0.494194 -0.382238,0.764476 -0.07645,0.229344 0.07645,0.535136 0,0.76448 -0.238702,0.716102 -0.45194,1.524433 -0.57336,2.293437 -0.150358,0.952257 -0.158946,1.928955 -0.382241,2.866795 -1.086895,2.173795 -0.296768,0.166179 -0.573358,2.102315 -0.07887,0.552122 -0.843129,0.726991 -0.382241,0.57336 0.785686,-0.261895 1.54295,-0.605372 2.293438,-0.955598 1.732769,-0.808625 2.765457,-2.343314 4.395753,-3.249035 0.871884,-0.484378 1.732301,-0.528635 2.675676,-0.76448 1.150977,-0.287742 2.27354,-0.722275 3.440154,-0.955598 0.866592,-0.173318 1.643562,-0.703299 2.484552,-0.955598 0.31114,-0.09334 0.65144,-0.07706 0.9556,-0.191119 0.21507,-0.08065 0.3525,-0.319135 0.57336,-0.382239 0.50253,-0.143581 1.19595,0.07488 1.72008,0 0.26003,-0.03715 0.50965,-0.127412 0.76448,-0.191121 0.31853,0 0.63864,0.0317 0.9556,0 0.89594,-0.08959 1.77973,-0.292643 2.67567,-0.382239 2.24396,-0.224395 4.62411,0 6.88031,0 2.88392,0 5.91467,-0.239736 8.79151,0 0.14196,0.01183 0.24172,0.167701 0.38223,0.19112 0.78498,0.130828 1.50916,0.120811 2.29344,0.38224 0.32547,0.108488 0.6207,0.307817 0.9556,0.382239 0.24876,0.05528 0.51946,-0.07001 0.76448,0 0.22086,0.0631 0.35545,0.309602 0.57336,0.382241 0.18131,0.06044 0.38416,-0.02703 0.57336,0 0.71631,0.10233 1.39764,0.455914 2.10231,0.573357 0.37704,0.06284 0.76743,-0.04741 1.14672,0 0.72973,0.09122 1.58003,0.239559 2.29344,0.382241 0.96563,0.193125 2.32017,0.798393 3.24903,1.146717 0.37726,0.141473 0.75163,0.303221 1.14672,0.382239 0.18741,0.03748 0.39591,-0.07098 0.57336,0 0.1673,0.06692 0.21494,0.315319 0.38224,0.38224 0.17745,0.07098 0.39205,-0.06044 0.57336,0 0.4769,0.158967 2.68863,1.412341 3.05791,1.720078 0.20764,0.173029 0.33869,0.439258 0.57336,0.573357 0.22806,0.130321 0.52305,0.08765 0.76448,0.191122 0.67862,0.290833 1.33291,0.712999 1.9112,1.146717 0.37149,0.278622 0.92199,0.32385 1.33783,0.573358 0.47488,0.05542 0.60581,0.554606 0.9556,0.764479 0.17275,0.10365 0.4122,0.07025 0.57336,0.191122 0.57295,0.429704 -0.11721,0.622628 1.52896,1.720074 0.0801,0.05343 1.04182,0.468466 1.14672,0.57336 0.31533,0.315331 0,0.891892 0,1.33784 0,2.571173 -3.45588,3.17836 -5.16023,4.395753 -0.21994,0.157099 -0.3416,0.434297 -0.57336,0.573357 -0.21851,0.131106 -0.5146,-0.04998 -0.76448,0 -0.75671,0.151342 -0.89551,0.382241 -1.72008,0.382241 -1.23391,0 -2.39576,-0.10287 -3.63127,-0.191122 -0.44482,-0.03177 -0.89189,0 -1.33784,0 -0.0637,0 -0.25483,0 -0.19112,0 1.91948,0 5.15117,-0.08838 6.88031,1.14672 1.29765,0.926894 2.38926,5.01808 2.67568,6.30695 0.0414,0.18657 -0.0753,0.39769 0,0.57336 0.46765,1.0912 1.62056,1.92478 2.29343,2.86679 0.1656,0.23184 0.2242,0.52743 0.38224,0.76448 0.22627,0.33941 0.53821,0.61619 0.76448,0.9556 1.04861,1.57292 1.94996,3.41852 2.67567,5.16023 0.2639,0.63336 0.54751,1.26027 0.76448,1.9112 0.10273,0.30817 0.0459,0.66505 0.19112,0.9556 0.12088,0.24175 0.43011,0.34416 0.57336,0.57336 0.18183,0.29092 0.22882,0.64874 0.38224,0.95559 0.37907,0.75815 1.01573,1.29704 1.33784,2.10232 0.3703,0.92575 0.46768,1.98854 0.9556,2.8668 0.60918,1.09653 1.7785,2.40494 2.86679,3.05791 0.17275,0.10365 0.43091,0.0487 0.57336,0.19112 0.14245,0.14245 0.0653,0.41605 0.19112,0.57336 0.14349,0.17936 0.41094,0.21982 0.57336,0.38224 0.51184,0.51184 0.31478,0.73824 0.76448,1.33784 0.21623,0.2883 0.57906,0.45545 0.76448,0.76448 0.2073,0.34549 0.21551,0.77991 0.38224,1.14671 0.59951,1.31894 1.65389,2.3522 2.29344,3.63128 0.15342,0.30685 0.22881,0.64875 0.38223,0.9556 0.57309,1.14616 1.15205,2.30409 1.72008,3.44015 0.20545,0.4109 0.5779,0.72692 0.76448,1.14672 0.4047,0.91058 0.52499,1.90886 0.76448,2.8668 0.0856,0.34244 0.40016,1.49311 0.19112,1.91119 -0.25335,0.5067 -2.90113,0.43577 -3.24904,0.38224 -0.39823,-0.0613 -0.75583,-0.28452 -1.14671,-0.38224 -0.12361,-0.0309 -0.27623,0.0707 -0.38224,0 -0.38653,-0.25768 -1.32854,-2.42586 -1.52896,-2.86679 -0.27141,-0.59711 -0.71201,-1.11109 -0.9556,-1.72008 -0.0473,-0.1183 0.0309,-0.25863 0,-0.38224 -0.0691,-0.2764 -0.27643,-0.49995 -0.38224,-0.76448 -0.49363,-1.23407 -0.63742,-1.10437 -1.9112,-1.52896 -0.83021,-0.27674 -1.61674,-0.76447 -2.48455,-0.76447 -0.52847,0 0.42174,-0.0945 0.76448,0.19111 0.2447,0.20392 0.40947,0.49134 0.57336,0.76448 0.76549,1.27582 0.95559,2.58563 0.95559,4.01352 0,2.99361 0.24737,0.23224 -0.38223,1.91119 -0.41247,1.0999 -0.46553,2.30415 -0.76448,3.44016 -0.24392,0.92688 -0.60358,1.47205 -0.9556,2.29343 -0.16933,0.3951 -0.48395,1.27304 -0.57336,1.72008 -0.025,0.12494 0.0707,0.27623 0,0.38224 -0.079,0.11853 -0.30322,0.0726 -0.38224,0.19112 -0.063,0.0945 -0.27324,1.15617 -0.38224,1.33784 -0.0927,0.15451 -0.28953,0.22773 -0.38224,0.38224 -0.41069,0.68448 -0.73603,1.41783 -1.14672,2.10232 -0.43673,0.72788 -1.88627,3.80578 -2.48455,4.20463 -1.36041,0.90694 -3.96246,-2.42766 -4.39576,-3.05792 -0.6093,-0.88626 -1.1692,-3.64252 -1.33784,-4.20463 -0.18029,-0.60098 -0.6123,-1.11138 -0.76447,-1.72008 -0.0618,-0.24721 0.036,-0.51221 0,-0.76448 -0.2099,-1.46927 -0.14079,0.3673 -0.57336,-1.14672 -0.07,-0.24502 0.0806,-0.52272 0,-0.76447 -0.057,-0.17095 -0.25483,-0.25483 -0.38224,-0.38224 0,-0.19112 0.0375,-0.38595 0,-0.57336 -0.0919,-0.45967 -0.5536,-0.95122 -0.76448,-1.33784 -0.4931,-0.90401 -0.93498,-1.84411 -1.52896,-2.67567 -0.1571,-0.21994 -0.42343,-0.34847 -0.57336,-0.57336 -0.23705,-0.35559 -0.34686,-0.78432 -0.57336,-1.14672 -0.32761,-0.52418 -0.8909,-0.93205 -1.14671,-1.52896 -0.10348,-0.24143 -0.0736,-0.52954 -0.19112,-0.76448 -0.0921,-0.18424 -0.76448,-0.71181 -0.76448,-0.9556 0,-0.34307 0.33968,0.61518 0.38224,0.9556 0.12785,1.02281 0.55237,4.43772 0,5.54247 -0.0285,0.057 -0.16263,-0.057 -0.19112,0 -0.057,0.11396 0,0.25483 0,0.38224 -0.0637,0.12741 -0.11211,0.26371 -0.19112,0.38224 -0.68172,1.02258 -1.48999,1.98634 -2.10232,3.05792 -0.29504,0.51631 -0.2123,0.96972 -0.76448,1.33783 -0.32062,0.21375 -3.86243,0 -4.39575,0 -0.63707,0 -1.2893,0.1382 -1.9112,0 -2.75766,-0.61281 0.9139,-0.12112 -1.33784,-0.76448 -0.24502,-0.07 -0.52587,0.0895 -0.76448,0 -1.21319,-0.45494 -3.20154,-3.29154 -3.63127,-3.82239 -1.08948,-1.34583 -2.09083,-2.84384 -2.86679,-4.39575 -0.21698,-0.43396 -0.35639,-0.90388 -0.57336,-1.33784 -0.28408,-0.56815 -0.98543,-1.26604 -1.14672,-1.9112 -0.0309,-0.12361 0.057,-0.26827 0,-0.38224 -0.0285,-0.057 -0.12741,0 -0.19112,0 -0.5078,0 -1.97543,-1.05516 -2.29344,-1.33783 -0.37248,-0.3311 -0.6409,-0.94447 -0.9556,-1.33784 -0.0416,-0.052 -0.94455,-0.77552 -0.76447,-0.9556 0.045,-0.0451 0.13811,-0.0353 0.19112,0 1.48564,0.99043 1.50245,0.85376 2.10231,2.29344 0.50685,1.21644 0.55485,4.7535 0.38224,6.30695 -0.13044,1.17401 -0.57266,2.28922 -0.76448,3.44015 -0.17366,1.04195 0.2946,3.70309 0,4.58687 -0.0285,0.0855 -0.16263,0.10565 -0.19112,0.19112 -0.0403,0.12088 0.057,0.26828 0,0.38224 -0.0285,0.057 -0.14607,-0.045 -0.19112,0 -0.39543,0.39544 0.60428,-0.0154 -0.19112,0.38224 -0.45603,0.22802 -1.89491,0 -2.48455,0 -2.41331,0 -4.32873,-1.04281 -5.92471,-2.86679 -0.20976,-0.23972 -0.34812,-0.53924 -0.57336,-0.76448 -0.22524,-0.22524 -0.53924,-0.34812 -0.76448,-0.57336 -0.22524,-0.22524 -0.3636,-0.52476 -0.57336,-0.76448 -0.53395,-0.61023 -1.18613,-1.10985 -1.72008,-1.72008 -0.85469,-0.9768 -1.56222,-2.13558 -2.48455,-3.05791 -1.52896,-1.01931 0.31853,0.31853 -0.9556,-0.9556 -0.46419,-0.46419 -0.28065,0.0568 -0.57336,-0.38224 -0.079,-0.11853 -0.0904,-0.28151 -0.19112,-0.38224 -0.26267,-0.26267 -0.65332,-0.35745 -0.9556,-0.57336 -0.25483,-0.19112 -0.50965,-0.38224 -0.76448,-0.57336 -0.12741,-0.19112 -0.20578,-0.42631 -0.38224,-0.57336 -0.21887,-0.18239 -0.56302,-0.18078 -0.76447,-0.38224 -0.26267,-0.26267 -0.35745,-0.65332 -0.57336,-0.95559 -0.8592,-1.20288 0.0764,0.26748 -0.76448,-0.57336 -0.0451,-0.0451 0.14966,-0.0484 0.19112,0 0.63981,0.74644 1.42442,1.82148 1.52895,2.86679 0.28559,2.85585 -0.39062,-0.71502 0.19112,2.48456 0.17752,0.97634 0.57045,1.89663 0.76448,2.86679 0.13214,0.6607 0.12698,3.69803 0,4.58687 -0.0881,0.61707 -0.4576,1.14131 -0.57336,1.72008 -0.0375,0.18741 0.0375,0.38595 0,0.57336 -0.0478,0.23894 -0.41945,1.18394 -0.57336,1.33784 -0.15501,0.15502 -3.856908,-0.12848 -4.01351,-0.19112 -0.295749,-0.1183 -0.479573,-0.43091 -0.764476,-0.57336 -0.113964,-0.057 -0.26828,0.057 -0.382241,0 -1.591929,-0.79596 -2.780536,-4.5932 -3.249036,-6.11583 -0.315473,-1.02529 -0.859179,-2.1006 -1.337837,-3.05791 -0.636082,-1.27217 -1.813395,-1.79785 -2.866794,-2.67568 -0.138428,-0.11535 -0.221073,-0.30166 -0.382241,-0.38224 -0.234937,-0.11747 -0.536416,-0.0608 -0.764479,-0.19112 -0.234673,-0.1341 -0.368144,-0.39746 -0.573358,-0.57336 -0.241847,-0.2073 -0.565494,-0.32463 -0.764479,-0.57336 -0.320855,-0.40107 -0.462383,-0.92245 -0.764479,-1.33783 -4.997955,-6.87219 -0.524314,-0.26893 -3.249036,-4.20464 -0.457983,-0.66153 -0.958519,-1.91412 -1.528955,-2.48455 -1.119521,-1.11953 -2.653062,-1.4221 -4.013515,-2.10232 -1.244513,-0.62226 0.380981,-0.19154 -0.764479,-0.57336 -0.671452,-0.22382 -1.562934,0.0176 -2.293435,-0.19112 -0.505127,-0.14432 -1.046096,-0.1753 -1.528958,-0.38224 -0.165619,-0.071 -0.221073,-0.30165 -0.382238,-0.38224 -0.382241,-0.19112 -0.286682,0.0956 -0.57336,0 -0.29866,-0.0996 -1.459241,-0.34041 -1.528959,-0.38224 -0.231767,-0.13906 -0.357132,-0.41119 -0.573357,-0.57336 -0.08358,-0.0627 -2.703158,-0.38224 -2.866798,-0.38224 -0.06371,0 0.128056,-0.009 0.191122,0 0.383617,0.0548 0.786921,0.0472 1.146718,0.19112 0.939077,0.37564 1.534988,1.368 1.720077,2.29344 0.08634,0.43168 0,1.0881 0,1.52896 0,0.68579 0.07556,1.42223 0,2.10232 -0.125815,1.13232 -0.210505,0.82263 -0.57336,1.91119 -0.465357,1.39607 -0.02532,0.17717 -0.191119,1.33784 0.03199,0.48608 -0.316648,0.87871 -0.382238,1.33784 -0.205227,1.43658 0.0032,2.93825 -0.191122,4.39575 -0.07762,0.58219 -0.309388,1.13727 -0.382238,1.72008 -0.114872,0.91897 -0.122831,2.36128 -0.19112,3.24903 -0.06744,0.87676 0.124408,1.80482 0,2.67568 -0.189243,1.3247 -0.377409,2.72328 -0.764479,4.01351 -0.09858,0.3286 -0.314957,0.61919 -0.382241,0.9556 -0.06247,0.31235 0.0691,0.64465 0,0.9556 -0.143517,0.64583 -0.650615,1.22802 -0.764476,1.91119 -0.648713,3.89228 -0.955598,7.73403 -0.955598,11.65831 0,2.44225 -0.664134,3.82877 0.764476,5.73358 z m 99.191118,-34.9749 31.15251,13.18726"
       id="path6" /><path
       style="fill:none;stroke:#000000;stroke-width:0.264583px;stroke-linecap:butt;stroke-linejoin:miter;stroke-opacity:1"
       d="m 58.864864,171.8166 c 1.341536,3.54399 0.435838,7.44662 0.955599,11.08494 0.343606,2.40524 1.451004,4.57935 1.911196,6.88031 1.146651,5.73326 0.257617,11.56693 3.631274,16.62741 10.2679,15.40185 30.035963,21.97877 47.779927,21.97877 9.0233,0 21.11647,-2.68898 27.33011,-9.93822 7.84157,-9.1485 12.63878,-23.87303 14.33398,-35.73939 0.53427,-3.7399 -0.10646,-12.29453 0.9556,-15.48069"
       id="path17" /><path
       style="fill:none;stroke:#000000;stroke-width:0.264583px;stroke-linecap:butt;stroke-linejoin:miter;stroke-opacity:1"
       d="m 156.14479,163.21621 c 6.65481,0.81309 13.80101,15.97327 10.7027,22.16989 -2.78077,5.56154 -10.26771,11.02397 -15.86294,12.42278"
       id="path18" /><path
       style="fill:none;stroke:#000000;stroke-width:0.264583px;stroke-linecap:butt;stroke-linejoin:miter;stroke-opacity:1"
       d="m 55.042471,166.27413 c -2.178568,0.73889 -4.658987,1.46945 -6.68919,2.48456 -0.891638,0.44581 -1.562627,3.83626 -1.911197,4.96911 -3.16516,10.28677 -3.700769,12.38369 3.057914,20.83204 0.795893,0.99487 3.018721,3.20298 4.204634,3.44016 3.275706,0.65514 6.722504,-0.38224 9.938224,-0.38224"
       id="path19" /><path
       style="fill:none;stroke:#000000;stroke-width:0.264583px;stroke-linecap:butt;stroke-linejoin:miter;stroke-opacity:1"
       d="m 104.54247,175.44787 c -2.4075,1.45132 -3.3331,3.66792 -4.586873,5.92471 -4.889074,8.80034 3.269033,5.93138 8.409263,7.64479"
       id="path20" /><path
       style="fill:none;stroke:#000000;stroke-width:0.264583px;stroke-linecap:butt;stroke-linejoin:miter;stroke-opacity:1"
       d="m 91.546332,201.05791 c 0.569079,0.57274 2.405073,-0.2441 3.057914,0.19112 8.549814,5.69988 21.762404,4.46788 31.725864,1.14672"
       id="path21" /><ellipse
       style="fill:#000000;fill-opacity:1;stroke:#000000;stroke-width:0.264999;stroke-dasharray:none;stroke-opacity:1"
       id="path22"
       cx="87.62838"
       cy="169.71428"
       rx="4.3001933"
       ry="4.3957529" /><ellipse
       style="fill:#000000;fill-opacity:1;stroke:#000000;stroke-width:0.264999;stroke-dasharray:none;stroke-opacity:1"
       id="path22-9"
       cx="124.8049"
       cy="168.99521"
       rx="4.3001933"
       ry="4.3957529" /></g></svg>
